<?xml version="1.0" standalone="no"?>
<!DOCTYPE svg PUBLIC "-//W3C//DTD SVG 20010904//EN"
 "http://www.w3.org/TR/2001/REC-SVG-20010904/DTD/svg10.dtd">
<svg version="1.0" xmlns="http://www.w3.org/2000/svg"
 width="159.000000pt" height="160.000000pt" viewBox="0 0 159.000000 160.000000"
 preserveAspectRatio="xMidYMid meet">

<g transform="translate(0.000000,160.000000) scale(0.100000,-0.100000)"
fill="#000000" stroke="none">
<path d="M1087 1112 c-10 -10 -17 -25 -17 -33 0 -9 -21 -22 -52 -33 -59 -20
-170 -85 -175 -102 -2 -7 17 -14 48 -17 69 -8 160 -53 239 -117 36 -29 76 -57
90 -62 24 -10 24 -11 5 -18 -11 -5 -39 -9 -62 -9 -35 -1 -57 10 -152 73 -108
73 -188 111 -246 118 -48 5 -38 -16 13 -28 68 -16 100 -30 171 -76 57 -38 62
-43 45 -55 -31 -22 -55 -16 -190 54 -202 103 -266 99 -403 -21 -79 -68 -142
-101 -196 -100 -53 1 -90 26 -112 75 -18 41 -33 51 -33 22 0 -29 37 -82 72
-103 70 -43 178 -10 288 88 73 65 114 85 175 85 57 -1 124 -25 224 -82 107
-60 134 -67 181 -43 22 11 42 16 45 12 9 -14 95 -50 120 -50 38 0 85 23 151
73 64 49 108 67 161 67 46 0 39 19 -17 48 -55 28 -81 25 -172 -23 -72 -37
-113 -43 -143 -21 -18 13 -18 16 -5 41 21 39 55 58 100 57 33 -2 39 2 44 24 5
19 -1 38 -21 69 -22 35 -34 44 -66 49 -22 4 -48 17 -61 31 -28 30 -28 30 -49
7z m109 -62 c15 0 29 -11 43 -34 29 -47 27 -56 -16 -56 -30 0 -44 -8 -80 -45
l-43 -45 -52 29 c-29 16 -74 35 -100 42 -27 6 -45 16 -42 21 4 6 34 23 68 39
62 29 106 37 106 19 0 -5 5 -10 11 -10 7 0 9 11 6 30 -11 53 0 62 40 34 20
-13 46 -24 59 -24z m242 -189 c10 -6 3 -10 -22 -15 -19 -4 -58 -22 -87 -41
-47 -32 -96 -44 -112 -28 -4 3 28 26 70 49 75 42 123 53 151 35z"/>
<path d="M573 763 c-13 -19 -18 -47 -18 -93 l0 -66 -68 -32 c-79 -38 -111 -79
-129 -165 -13 -63 -4 -85 20 -47 35 54 88 98 132 110 86 22 112 41 155 112 48
80 89 124 121 132 28 7 32 26 5 26 -34 0 -86 -46 -126 -112 -40 -66 -73 -108
-84 -108 -11 0 4 215 17 237 24 42 2 48 -25 6z m-21 -219 c-3 -19 -18 -32 -58
-51 -29 -14 -65 -36 -79 -49 -36 -33 -39 -30 -15 15 20 41 67 82 110 100 40
16 48 13 42 -15z"/>
</g>
</svg>
